# xmcd
#
# Track frame offsets:
#	150
#	14410
#	27942
#	40810
#	54455
#	66785
#	81355
#	94457
#	107550
#	120742
#	139212
#	153020
#	168847
#	180802
#	194427
#	207387
#	218500
#	233592
#	244715
#	255905
#	266362
#	280335
#
# Disc length: 3956 seconds
#
# Revision: 0
# Processed by: cddbd v1.4PL0 Copyright (c) Steve Scherf et al.
# Submitted via: dBpowerAMP V4.0
#
DISCID=240f7216
DTITLE=Mel Tillis - Beyond The Sunset
DYEAR=1900
DGENRE=Country
TTITLE0=Beyond the Sunset
TTITLE1=On The Wings Of A Dove
TTITLE2=He
TTITLE3=Mansion Over The Hill Top
TTITLE4=An Evening Prayer
TTITLE5=His Eye Is On The Sparrow
TTITLE6=Peace In The Valley
TTITLE7=The Father's Son
TTITLE8=Bay The Good Lord Bless And Keep You
TTITLE9=Were You There
TTITLE10=Precious Memories
TTITLE11=Just A Closer Walk With Thee
TTITLE12=I Believe
TTITLE13=My Friend
TTITLE14=Passing By
TTITLE15=Church In the Wildwood
TTITLE16=He'll Understand And Say Will Done
TTITLE17=Night Watch
TTITLE18=The Old House
TTITLE19=God Walks These Hills With Me
TTITLE20=Take My Hand Precious Lord
TTITLE21=How Great Thou Are
EXTD=Belond The Sunset by Mel Tillis. This album was sold by Mel Tillis at his theather.\nRoy Waltz
EXTT0=
EXTT1=
EXTT2=
EXTT3=
EXTT4=
EXTT5=
EXTT6=
EXTT7=
EXTT8=
EXTT9=
EXTT10=
EXTT11=
EXTT12=
EXTT13=
EXTT14=
EXTT15=
EXTT16=
EXTT17=
EXTT18=
EXTT19=
EXTT20=
EXTT21=
PLAYORDER=
